<?xml version="1.0" standalone="no"?>
<!DOCTYPE svg PUBLIC "-//W3C//DTD SVG 20010904//EN"
 "http://www.w3.org/TR/2001/REC-SVG-20010904/DTD/svg10.dtd">
<svg version="1.0" xmlns="http://www.w3.org/2000/svg"
 width="520.000000pt" height="520.000000pt" viewBox="0 0 520.000000 520.000000"
 preserveAspectRatio="xMidYMid meet">
<metadata>
Created by potrace 1.14, written by Peter Selinger 2001-2017
</metadata>
<g transform="translate(0.000000,520.000000) scale(0.100000,-0.100000)"
fill="#000000" stroke="none">
<path d="M2504 4621 c-132 -71 -649 -354 -704 -384 -30 -17 -57 -31 -60 -30
-3 0 -16 -7 -30 -17 -14 -9 -59 -35 -100 -57 -41 -22 -146 -79 -233 -127 -87
-47 -162 -86 -167 -86 -5 0 -10 -3 -12 -7 -1 -5 -19 -16 -38 -27 -156 -82
-230 -123 -263 -143 -20 -13 -37 -21 -37 -17 0 3 -12 -3 -27 -14 -16 -10 -64
-38 -108 -62 -169 -91 -212 -114 -278 -152 -38 -21 -70 -38 -72 -38 -11 0
-224 -125 -240 -141 -15 -14 -20 -33 -20 -70 0 -62 13 -75 141 -144 49 -26
109 -59 134 -73 25 -13 70 -38 100 -54 30 -17 102 -56 160 -88 58 -31 132 -72
165 -90 33 -18 85 -46 115 -63 30 -16 84 -45 120 -65 36 -19 82 -44 102 -56
l38 -21 0 -655 c1 -360 3 -674 6 -697 6 -60 39 -144 84 -210 167 -248 581
-434 1070 -480 134 -13 542 -6 590 11 8 2 35 7 60 10 185 21 437 100 597 186
231 124 381 300 407 475 3 22 5 337 6 700 l0 660 43 24 c23 14 42 23 43 20 0
-2 7 1 15 7 16 13 49 32 164 94 44 23 94 50 110 60 17 9 59 33 95 52 36 20 91
50 122 67 l58 30 -1 -722 c0 -397 2 -733 6 -747 3 -14 21 -35 39 -48 53 -36
118 -26 151 25 19 27 19 60 20 820 0 435 2 793 5 795 3 2 36 19 74 38 37 19
84 49 102 66 28 26 34 38 34 74 0 36 -6 48 -34 74 -18 17 -60 44 -92 61 -33
16 -96 51 -141 77 -46 26 -83 44 -83 41 0 -3 -8 0 -17 8 -10 8 -27 19 -38 25
-193 106 -918 501 -940 512 -16 8 -42 24 -57 34 -16 11 -28 16 -28 13 0 -3
-12 2 -27 13 -16 10 -73 43 -128 72 -100 53 -151 81 -235 128 -25 14 -74 41
-110 59 -36 19 -78 43 -95 53 -16 9 -61 34 -100 55 -38 21 -88 48 -110 60
-185 101 -222 119 -250 120 -21 2 -56 -10 -101 -34z"/>
</g>
</svg>
